<?xml version="1.0" encoding="UTF-8" standalone="no"?>
<!DOCTYPE svg PUBLIC "-//W3C//DTD SVG 1.1//EN" "http://www.w3.org/Graphics/SVG/1.1/DTD/svg11.dtd">
<svg width="100%" height="100%" viewBox="0 0 800 137" version="1.1" xmlns="http://www.w3.org/2000/svg" xmlns:xlink="http://www.w3.org/1999/xlink" xml:space="preserve" xmlns:serif="http://www.serif.com/" style="fill-rule:evenodd;clip-rule:evenodd;stroke-linejoin:round;stroke-miterlimit:2;">
    <g transform="matrix(1,0,0,1,-19252.1,-2398.19)">
        <g transform="matrix(5.55556,0,0,5.55556,15785.4,0)">
            <g transform="matrix(1,0,0,1,160.929,57.0144)">
                <g transform="matrix(1,0,0,1,36.3809,-29.8408)">
                    <g transform="matrix(10.4069,0,0,10.4069,462.798,426.584)">
                        <path d="M0.561,-0.703C0.576,-0.703 0.588,-0.698 0.598,-0.688C0.608,-0.677 0.613,-0.665 0.613,-0.65L0.613,-0.256C0.613,-0.175 0.587,-0.111 0.536,-0.064C0.485,-0.017 0.419,0.007 0.339,0.007C0.258,0.007 0.193,-0.016 0.142,-0.063C0.091,-0.11 0.065,-0.175 0.065,-0.256L0.065,-0.65C0.065,-0.665 0.07,-0.677 0.081,-0.688C0.091,-0.698 0.103,-0.703 0.118,-0.703C0.133,-0.703 0.146,-0.698 0.157,-0.688C0.168,-0.677 0.173,-0.665 0.173,-0.65L0.173,-0.257C0.173,-0.202 0.188,-0.16 0.218,-0.13C0.248,-0.099 0.288,-0.084 0.339,-0.084C0.39,-0.084 0.43,-0.099 0.46,-0.13C0.49,-0.16 0.505,-0.202 0.505,-0.257L0.505,-0.65C0.505,-0.665 0.51,-0.677 0.522,-0.688C0.533,-0.698 0.546,-0.703 0.561,-0.703Z" style="fill:rgb(79,70,229);fill-rule:nonzero;"/>
                    </g>
                    <g transform="matrix(10.4069,0,0,10.4069,469.854,426.584)">
                        <path d="M0.351,-0.373L0.619,-0.075C0.628,-0.066 0.632,-0.055 0.632,-0.042C0.632,-0.029 0.627,-0.017 0.618,-0.008C0.608,0.001 0.596,0.006 0.583,0.006C0.569,0.006 0.557,0 0.547,-0.011L0.283,-0.302L0.168,-0.184L0.168,-0.049C0.168,-0.034 0.163,-0.022 0.152,-0.011C0.141,0 0.129,0.006 0.114,0.006C0.099,0.006 0.087,0.001 0.076,-0.01C0.065,-0.021 0.06,-0.034 0.06,-0.049L0.06,-0.651C0.06,-0.666 0.065,-0.679 0.076,-0.69C0.087,-0.701 0.099,-0.706 0.114,-0.706C0.129,-0.706 0.141,-0.7 0.152,-0.69C0.163,-0.679 0.168,-0.666 0.168,-0.651L0.168,-0.329L0.519,-0.688C0.537,-0.705 0.556,-0.71 0.576,-0.702C0.596,-0.694 0.606,-0.679 0.606,-0.657C0.606,-0.645 0.602,-0.634 0.595,-0.625L0.351,-0.373Z" style="fill:rgb(79,70,229);fill-rule:nonzero;"/>
                    </g>
                    <g transform="matrix(10.4069,0,0,10.4069,476.744,426.584)">
                        <path d="M0.399,-0.269L0.553,-0.081C0.562,-0.072 0.566,-0.06 0.566,-0.047C0.566,-0.033 0.561,-0.021 0.552,-0.012C0.543,-0.002 0.531,0.003 0.517,0.003C0.502,0.003 0.488,-0.004 0.477,-0.017L0.289,-0.255L0.168,-0.255L0.168,-0.049C0.168,-0.034 0.163,-0.021 0.153,-0.01C0.142,0.001 0.13,0.006 0.115,0.006C0.1,0.006 0.087,0.001 0.076,-0.01C0.065,-0.021 0.06,-0.034 0.06,-0.049L0.06,-0.641C0.06,-0.658 0.066,-0.672 0.077,-0.683C0.088,-0.694 0.102,-0.7 0.119,-0.7L0.302,-0.7C0.378,-0.7 0.44,-0.679 0.487,-0.637C0.534,-0.595 0.557,-0.542 0.557,-0.478C0.557,-0.427 0.543,-0.384 0.515,-0.347C0.487,-0.31 0.448,-0.284 0.399,-0.269ZM0.298,-0.607L0.168,-0.607L0.168,-0.348L0.298,-0.348C0.401,-0.348 0.452,-0.391 0.452,-0.478C0.452,-0.52 0.438,-0.552 0.411,-0.574C0.384,-0.596 0.346,-0.607 0.298,-0.607Z" style="fill:rgb(79,70,229);fill-rule:nonzero;"/>
                    </g>
                    <g transform="matrix(10.4069,0,0,10.4069,483.051,426.584)">
                        <path d="M0.119,-0.7L0.268,-0.7C0.373,-0.7 0.458,-0.669 0.523,-0.607C0.589,-0.546 0.622,-0.461 0.622,-0.352C0.622,-0.241 0.589,-0.155 0.523,-0.093C0.458,-0.031 0.373,-0 0.268,-0L0.119,-0C0.102,-0 0.088,-0.006 0.077,-0.017C0.066,-0.028 0.06,-0.042 0.06,-0.059L0.06,-0.641C0.06,-0.658 0.066,-0.672 0.077,-0.683C0.088,-0.694 0.102,-0.7 0.119,-0.7ZM0.168,-0.092L0.268,-0.092C0.348,-0.092 0.409,-0.114 0.451,-0.158C0.493,-0.201 0.514,-0.266 0.514,-0.352C0.514,-0.437 0.493,-0.501 0.451,-0.544C0.408,-0.587 0.347,-0.608 0.268,-0.608L0.168,-0.608L0.168,-0.092Z" style="fill:rgb(79,70,229);fill-rule:nonzero;"/>
                    </g>
                    <g transform="matrix(10.4069,0,0,10.4069,489.94,426.584)">
                        <path d="M0.573,-0.155C0.587,-0.155 0.599,-0.15 0.609,-0.141C0.618,-0.132 0.623,-0.12 0.623,-0.106C0.623,-0.085 0.607,-0.064 0.576,-0.043C0.527,-0.01 0.469,0.007 0.402,0.007C0.343,0.007 0.286,-0.008 0.233,-0.037C0.18,-0.067 0.136,-0.11 0.101,-0.165C0.067,-0.22 0.05,-0.282 0.05,-0.35C0.05,-0.418 0.067,-0.48 0.101,-0.535C0.135,-0.59 0.179,-0.632 0.232,-0.662C0.285,-0.692 0.342,-0.707 0.402,-0.707C0.469,-0.707 0.527,-0.69 0.576,-0.657C0.607,-0.636 0.623,-0.615 0.623,-0.594C0.623,-0.58 0.618,-0.568 0.609,-0.559C0.599,-0.55 0.587,-0.545 0.573,-0.545C0.558,-0.545 0.542,-0.552 0.525,-0.565C0.492,-0.591 0.452,-0.604 0.403,-0.604C0.339,-0.604 0.283,-0.579 0.235,-0.53C0.187,-0.481 0.163,-0.421 0.163,-0.35C0.163,-0.278 0.187,-0.218 0.235,-0.169C0.283,-0.12 0.339,-0.096 0.403,-0.096C0.452,-0.096 0.492,-0.109 0.525,-0.135C0.542,-0.148 0.558,-0.155 0.573,-0.155Z" style="fill:rgb(79,70,229);fill-rule:nonzero;"/>
                    </g>
                </g>
                <g transform="matrix(1,0,0,1,36.363,-42.6608)">
                    <g id="t" transform="matrix(10.4069,0,0,10.4069,462.798,426.584)">
                        <path d="M0.561,-0.703C0.576,-0.703 0.588,-0.698 0.598,-0.688C0.608,-0.677 0.613,-0.665 0.613,-0.65L0.613,-0.256C0.613,-0.175 0.587,-0.111 0.536,-0.064C0.485,-0.017 0.419,0.007 0.339,0.007C0.258,0.007 0.193,-0.016 0.142,-0.063C0.091,-0.11 0.065,-0.175 0.065,-0.256L0.065,-0.65C0.065,-0.665 0.07,-0.677 0.081,-0.688C0.091,-0.698 0.103,-0.703 0.118,-0.703C0.133,-0.703 0.146,-0.698 0.157,-0.688C0.168,-0.677 0.173,-0.665 0.173,-0.65L0.173,-0.257C0.173,-0.202 0.188,-0.16 0.218,-0.13C0.248,-0.099 0.288,-0.084 0.339,-0.084C0.39,-0.084 0.43,-0.099 0.46,-0.13C0.49,-0.16 0.505,-0.202 0.505,-0.257L0.505,-0.65C0.505,-0.665 0.51,-0.677 0.522,-0.688C0.533,-0.698 0.546,-0.703 0.561,-0.703Z" style="fill:rgb(64,63,65);fill-rule:nonzero;"/>
                    </g>
                    <g transform="matrix(10.4069,0,0,10.4069,469.854,426.584)">
                        <path d="M0.351,-0.373L0.619,-0.075C0.628,-0.066 0.632,-0.055 0.632,-0.042C0.632,-0.029 0.627,-0.017 0.618,-0.008C0.608,0.001 0.596,0.006 0.583,0.006C0.569,0.006 0.557,0 0.547,-0.011L0.283,-0.302L0.168,-0.184L0.168,-0.049C0.168,-0.034 0.163,-0.022 0.152,-0.011C0.141,0 0.129,0.006 0.114,0.006C0.099,0.006 0.087,0.001 0.076,-0.01C0.065,-0.021 0.06,-0.034 0.06,-0.049L0.06,-0.651C0.06,-0.666 0.065,-0.679 0.076,-0.69C0.087,-0.701 0.099,-0.706 0.114,-0.706C0.129,-0.706 0.141,-0.7 0.152,-0.69C0.163,-0.679 0.168,-0.666 0.168,-0.651L0.168,-0.329L0.519,-0.688C0.537,-0.705 0.556,-0.71 0.576,-0.702C0.596,-0.694 0.606,-0.679 0.606,-0.657C0.606,-0.645 0.602,-0.634 0.595,-0.625L0.351,-0.373Z" style="fill:rgb(64,63,65);fill-rule:nonzero;"/>
                    </g>
                    <g transform="matrix(10.4069,0,0,10.4069,479.439,426.584)">
                        <path d="M0.351,-0.373L0.619,-0.075C0.628,-0.066 0.632,-0.055 0.632,-0.042C0.632,-0.029 0.627,-0.017 0.618,-0.008C0.608,0.001 0.596,0.006 0.583,0.006C0.569,0.006 0.557,0 0.547,-0.011L0.283,-0.302L0.168,-0.184L0.168,-0.049C0.168,-0.034 0.163,-0.022 0.152,-0.011C0.141,0 0.129,0.006 0.114,0.006C0.099,0.006 0.087,0.001 0.076,-0.01C0.065,-0.021 0.06,-0.034 0.06,-0.049L0.06,-0.651C0.06,-0.666 0.065,-0.679 0.076,-0.69C0.087,-0.701 0.099,-0.706 0.114,-0.706C0.129,-0.706 0.141,-0.7 0.152,-0.69C0.163,-0.679 0.168,-0.666 0.168,-0.651L0.168,-0.329L0.519,-0.688C0.537,-0.705 0.556,-0.71 0.576,-0.702C0.596,-0.694 0.606,-0.679 0.606,-0.657C0.606,-0.645 0.602,-0.634 0.595,-0.625L0.351,-0.373Z" style="fill:rgb(64,63,65);fill-rule:nonzero;"/>
                    </g>
                    <g transform="matrix(10.4069,0,0,10.4069,486.329,426.584)">
                        <path d="M0.152,-0.633C0.141,-0.623 0.129,-0.618 0.114,-0.618C0.099,-0.618 0.087,-0.623 0.076,-0.633C0.065,-0.644 0.06,-0.656 0.06,-0.671C0.06,-0.686 0.065,-0.698 0.076,-0.708C0.087,-0.719 0.099,-0.724 0.114,-0.724C0.129,-0.724 0.141,-0.719 0.152,-0.708C0.163,-0.698 0.168,-0.686 0.168,-0.671C0.168,-0.656 0.163,-0.644 0.152,-0.633ZM0.167,-0.469L0.167,-0.048C0.167,-0.033 0.162,-0.021 0.152,-0.01C0.141,0.001 0.129,0.006 0.114,0.006C0.099,0.006 0.087,0.001 0.077,-0.01C0.066,-0.021 0.061,-0.033 0.061,-0.048L0.061,-0.469C0.061,-0.484 0.066,-0.496 0.077,-0.507C0.087,-0.518 0.099,-0.523 0.114,-0.523C0.129,-0.523 0.141,-0.518 0.152,-0.507C0.162,-0.496 0.167,-0.484 0.167,-0.469Z" style="fill:rgb(64,63,65);fill-rule:nonzero;"/>
                    </g>
                    <g transform="matrix(10.4069,0,0,10.4069,488.702,426.584)">
                        <path d="M0.501,-0.714C0.516,-0.714 0.528,-0.709 0.539,-0.699C0.55,-0.688 0.555,-0.676 0.555,-0.661L0.555,-0.047C0.555,-0.032 0.55,-0.02 0.539,-0.01C0.528,0.001 0.516,0.006 0.501,0.006C0.486,0.006 0.474,0.001 0.464,-0.01C0.453,-0.02 0.448,-0.032 0.448,-0.047L0.448,-0.101C0.444,-0.075 0.427,-0.051 0.396,-0.028C0.365,-0.005 0.327,0.007 0.284,0.007C0.244,0.007 0.206,-0.002 0.171,-0.021C0.133,-0.04 0.102,-0.071 0.077,-0.114C0.052,-0.156 0.04,-0.205 0.04,-0.26C0.04,-0.303 0.048,-0.341 0.063,-0.376C0.078,-0.411 0.097,-0.439 0.121,-0.46C0.145,-0.481 0.171,-0.498 0.2,-0.509C0.228,-0.52 0.256,-0.526 0.284,-0.526C0.321,-0.526 0.354,-0.517 0.384,-0.5C0.413,-0.483 0.435,-0.459 0.448,-0.43L0.448,-0.47C0.448,-0.475 0.448,-0.479 0.449,-0.48L0.449,-0.661C0.449,-0.676 0.454,-0.688 0.465,-0.699C0.475,-0.709 0.487,-0.714 0.501,-0.714ZM0.301,-0.084C0.34,-0.084 0.375,-0.099 0.406,-0.129C0.437,-0.159 0.453,-0.203 0.453,-0.26C0.453,-0.317 0.437,-0.361 0.406,-0.39C0.375,-0.42 0.34,-0.435 0.301,-0.435C0.26,-0.435 0.224,-0.42 0.193,-0.389C0.162,-0.358 0.146,-0.315 0.146,-0.26C0.146,-0.205 0.162,-0.161 0.193,-0.13C0.224,-0.099 0.26,-0.084 0.301,-0.084Z" style="fill:rgb(64,63,65);fill-rule:nonzero;"/>
                    </g>
                    <g transform="matrix(10.4069,0,0,10.4069,495.102,426.584)">
                        <path d="M0.345,-0.525C0.399,-0.525 0.445,-0.506 0.482,-0.469C0.519,-0.432 0.537,-0.374 0.537,-0.294L0.537,-0.048C0.537,-0.033 0.532,-0.021 0.522,-0.011C0.512,-0 0.5,0.005 0.485,0.005C0.47,0.005 0.458,-0 0.448,-0.011C0.437,-0.021 0.432,-0.033 0.432,-0.048L0.432,-0.294C0.432,-0.34 0.421,-0.375 0.399,-0.399C0.376,-0.422 0.347,-0.434 0.31,-0.434C0.267,-0.434 0.234,-0.42 0.209,-0.391C0.184,-0.362 0.17,-0.334 0.166,-0.305L0.166,-0.048C0.166,-0.033 0.161,-0.021 0.151,-0.011C0.14,-0 0.128,0.005 0.113,0.005C0.098,0.005 0.086,-0 0.076,-0.011C0.065,-0.021 0.06,-0.033 0.06,-0.048L0.06,-0.469C0.06,-0.484 0.065,-0.496 0.076,-0.507C0.086,-0.518 0.098,-0.523 0.113,-0.523C0.128,-0.523 0.14,-0.518 0.151,-0.507C0.161,-0.496 0.166,-0.484 0.166,-0.469L0.166,-0.403C0.169,-0.426 0.187,-0.453 0.22,-0.482C0.253,-0.511 0.294,-0.525 0.345,-0.525Z" style="fill:rgb(64,63,65);fill-rule:nonzero;"/>
                    </g>
                    <g transform="matrix(10.4069,0,0,10.4069,501.315,426.584)">
                        <path d="M0.299,-0.526C0.362,-0.526 0.419,-0.503 0.471,-0.457C0.524,-0.412 0.55,-0.352 0.55,-0.277C0.55,-0.239 0.528,-0.22 0.484,-0.22L0.149,-0.221C0.154,-0.178 0.172,-0.144 0.203,-0.119C0.233,-0.094 0.27,-0.082 0.313,-0.082C0.348,-0.082 0.382,-0.092 0.413,-0.111C0.432,-0.122 0.446,-0.127 0.455,-0.127C0.466,-0.127 0.475,-0.124 0.482,-0.117C0.489,-0.11 0.492,-0.1 0.492,-0.089C0.492,-0.074 0.483,-0.059 0.465,-0.044C0.426,-0.011 0.374,0.005 0.309,0.005C0.264,0.005 0.221,-0.004 0.181,-0.022C0.14,-0.041 0.106,-0.071 0.08,-0.113C0.053,-0.155 0.04,-0.204 0.04,-0.259C0.04,-0.301 0.048,-0.34 0.064,-0.376C0.079,-0.411 0.1,-0.439 0.127,-0.46C0.18,-0.504 0.238,-0.526 0.299,-0.526ZM0.149,-0.297L0.447,-0.297C0.443,-0.34 0.427,-0.373 0.399,-0.398C0.371,-0.422 0.338,-0.434 0.299,-0.434C0.262,-0.434 0.229,-0.422 0.199,-0.398C0.17,-0.375 0.153,-0.341 0.149,-0.297Z" style="fill:rgb(64,63,65);fill-rule:nonzero;"/>
                    </g>
                    <g transform="matrix(10.4069,0,0,10.4069,507.029,426.584)">
                        <path d="M0.48,-0.523C0.494,-0.523 0.506,-0.518 0.515,-0.509C0.524,-0.5 0.529,-0.488 0.529,-0.475C0.529,-0.468 0.527,-0.46 0.523,-0.451L0.256,0.159C0.245,0.183 0.229,0.195 0.206,0.195C0.192,0.195 0.181,0.191 0.172,0.182C0.163,0.173 0.159,0.161 0.159,0.147C0.159,0.14 0.161,0.132 0.165,0.123L0.227,-0.02L0.036,-0.451C0.032,-0.46 0.03,-0.468 0.03,-0.475C0.03,-0.488 0.035,-0.5 0.044,-0.509C0.053,-0.518 0.065,-0.523 0.079,-0.523C0.101,-0.523 0.118,-0.511 0.129,-0.487L0.279,-0.138L0.43,-0.487C0.441,-0.511 0.457,-0.523 0.48,-0.523Z" style="fill:rgb(64,63,65);fill-rule:nonzero;"/>
                    </g>
                    <g transform="matrix(10.4069,0,0,10.4069,515.542,426.584)">
                        <path d="M0.406,-0.665L0.665,-0.074C0.67,-0.065 0.672,-0.056 0.672,-0.045C0.672,-0.032 0.667,-0.02 0.657,-0.01C0.647,0 0.635,0.005 0.62,0.005C0.595,0.005 0.577,-0.006 0.567,-0.029L0.505,-0.173L0.201,-0.173L0.14,-0.029C0.13,-0.006 0.112,0.005 0.087,0.005C0.072,0.005 0.06,0 0.05,-0.01C0.04,-0.02 0.035,-0.032 0.035,-0.045C0.035,-0.056 0.037,-0.065 0.042,-0.074L0.301,-0.665C0.312,-0.692 0.329,-0.705 0.353,-0.705C0.378,-0.705 0.395,-0.692 0.406,-0.665ZM0.353,-0.53L0.238,-0.259L0.469,-0.259L0.353,-0.53Z" style="fill:rgb(64,63,65);fill-rule:nonzero;"/>
                    </g>
                    <g transform="matrix(10.4069,0,0,10.4069,522.9,426.584)">
                        <path d="M0.233,-0.526C0.269,-0.526 0.302,-0.519 0.331,-0.506C0.36,-0.492 0.383,-0.473 0.399,-0.448C0.408,-0.433 0.413,-0.421 0.413,-0.411C0.413,-0.399 0.409,-0.389 0.401,-0.382C0.393,-0.375 0.383,-0.371 0.37,-0.371C0.353,-0.371 0.337,-0.38 0.324,-0.398C0.301,-0.426 0.272,-0.44 0.235,-0.44C0.211,-0.44 0.192,-0.434 0.177,-0.423C0.162,-0.412 0.155,-0.397 0.155,-0.379C0.155,-0.349 0.177,-0.328 0.222,-0.315L0.284,-0.298C0.333,-0.285 0.371,-0.267 0.396,-0.244C0.421,-0.221 0.433,-0.191 0.433,-0.153C0.433,-0.103 0.413,-0.064 0.373,-0.036C0.334,-0.009 0.286,0.005 0.23,0.005C0.191,0.005 0.156,-0.002 0.125,-0.017C0.093,-0.032 0.071,-0.051 0.056,-0.074C0.042,-0.093 0.035,-0.11 0.035,-0.125C0.035,-0.137 0.039,-0.147 0.046,-0.156C0.053,-0.164 0.063,-0.168 0.076,-0.168C0.093,-0.168 0.108,-0.158 0.121,-0.139C0.143,-0.102 0.179,-0.083 0.23,-0.083C0.26,-0.083 0.284,-0.089 0.302,-0.1C0.319,-0.111 0.328,-0.127 0.328,-0.147C0.328,-0.178 0.304,-0.2 0.257,-0.213L0.19,-0.231C0.097,-0.257 0.051,-0.306 0.051,-0.378C0.051,-0.423 0.069,-0.459 0.104,-0.486C0.139,-0.513 0.182,-0.526 0.233,-0.526Z" style="fill:rgb(64,63,65);fill-rule:nonzero;"/>
                    </g>
                    <g transform="matrix(10.4069,0,0,10.4069,527.77,426.584)">
                        <path d="M0.233,-0.526C0.269,-0.526 0.302,-0.519 0.331,-0.506C0.36,-0.492 0.383,-0.473 0.399,-0.448C0.408,-0.433 0.413,-0.421 0.413,-0.411C0.413,-0.399 0.409,-0.389 0.401,-0.382C0.393,-0.375 0.383,-0.371 0.37,-0.371C0.353,-0.371 0.337,-0.38 0.324,-0.398C0.301,-0.426 0.272,-0.44 0.235,-0.44C0.211,-0.44 0.192,-0.434 0.177,-0.423C0.162,-0.412 0.155,-0.397 0.155,-0.379C0.155,-0.349 0.177,-0.328 0.222,-0.315L0.284,-0.298C0.333,-0.285 0.371,-0.267 0.396,-0.244C0.421,-0.221 0.433,-0.191 0.433,-0.153C0.433,-0.103 0.413,-0.064 0.373,-0.036C0.334,-0.009 0.286,0.005 0.23,0.005C0.191,0.005 0.156,-0.002 0.125,-0.017C0.093,-0.032 0.071,-0.051 0.056,-0.074C0.042,-0.093 0.035,-0.11 0.035,-0.125C0.035,-0.137 0.039,-0.147 0.046,-0.156C0.053,-0.164 0.063,-0.168 0.076,-0.168C0.093,-0.168 0.108,-0.158 0.121,-0.139C0.143,-0.102 0.179,-0.083 0.23,-0.083C0.26,-0.083 0.284,-0.089 0.302,-0.1C0.319,-0.111 0.328,-0.127 0.328,-0.147C0.328,-0.178 0.304,-0.2 0.257,-0.213L0.19,-0.231C0.097,-0.257 0.051,-0.306 0.051,-0.378C0.051,-0.423 0.069,-0.459 0.104,-0.486C0.139,-0.513 0.182,-0.526 0.233,-0.526Z" style="fill:rgb(64,63,65);fill-rule:nonzero;"/>
                    </g>
                    <g transform="matrix(10.4069,0,0,10.4069,532.433,426.584)">
                        <path d="M0.303,-0.526C0.333,-0.526 0.363,-0.52 0.393,-0.509C0.423,-0.498 0.451,-0.481 0.478,-0.46C0.504,-0.439 0.525,-0.411 0.542,-0.376C0.559,-0.341 0.567,-0.302 0.567,-0.259C0.567,-0.216 0.559,-0.178 0.542,-0.143C0.525,-0.108 0.504,-0.08 0.478,-0.059C0.451,-0.038 0.423,-0.021 0.393,-0.01C0.363,0.001 0.333,0.007 0.303,0.007C0.261,0.007 0.221,-0.002 0.183,-0.021C0.144,-0.04 0.111,-0.07 0.082,-0.112C0.054,-0.154 0.04,-0.203 0.04,-0.259C0.04,-0.315 0.054,-0.364 0.082,-0.406C0.109,-0.446 0.142,-0.476 0.181,-0.496C0.22,-0.516 0.26,-0.526 0.303,-0.526ZM0.192,-0.387C0.161,-0.356 0.145,-0.313 0.145,-0.259C0.145,-0.205 0.161,-0.163 0.193,-0.132C0.226,-0.101 0.262,-0.085 0.303,-0.085C0.344,-0.085 0.381,-0.101 0.414,-0.132C0.446,-0.163 0.462,-0.205 0.462,-0.259C0.462,-0.313 0.446,-0.356 0.414,-0.387C0.381,-0.418 0.344,-0.434 0.303,-0.434C0.262,-0.434 0.225,-0.418 0.192,-0.387Z" style="fill:rgb(64,63,65);fill-rule:nonzero;"/>
                    </g>
                    <g transform="matrix(10.4069,0,0,10.4069,538.542,426.584)">
                        <path d="M0.456,-0.152C0.468,-0.152 0.478,-0.148 0.487,-0.141C0.495,-0.133 0.499,-0.123 0.499,-0.111C0.499,-0.107 0.499,-0.103 0.498,-0.1C0.497,-0.096 0.496,-0.093 0.495,-0.091C0.494,-0.088 0.492,-0.085 0.489,-0.082C0.486,-0.079 0.485,-0.076 0.484,-0.075C0.483,-0.074 0.48,-0.071 0.477,-0.069C0.474,-0.066 0.472,-0.064 0.471,-0.063C0.428,-0.018 0.372,0.005 0.303,0.005C0.272,0.005 0.242,-0.001 0.212,-0.012C0.181,-0.023 0.153,-0.04 0.127,-0.061C0.101,-0.082 0.08,-0.109 0.064,-0.144C0.048,-0.179 0.04,-0.217 0.04,-0.26C0.04,-0.303 0.048,-0.341 0.064,-0.376C0.08,-0.411 0.101,-0.439 0.127,-0.46C0.153,-0.481 0.181,-0.498 0.212,-0.509C0.242,-0.52 0.272,-0.526 0.303,-0.526C0.372,-0.526 0.428,-0.503 0.471,-0.458C0.472,-0.457 0.474,-0.456 0.477,-0.453C0.48,-0.45 0.483,-0.447 0.484,-0.446C0.485,-0.445 0.486,-0.442 0.489,-0.439C0.492,-0.436 0.494,-0.433 0.495,-0.431C0.496,-0.428 0.497,-0.425 0.498,-0.422C0.499,-0.418 0.499,-0.414 0.499,-0.41C0.499,-0.398 0.495,-0.388 0.487,-0.381C0.478,-0.373 0.468,-0.369 0.456,-0.369C0.44,-0.369 0.426,-0.375 0.413,-0.388C0.387,-0.419 0.352,-0.434 0.307,-0.434C0.263,-0.434 0.225,-0.418 0.192,-0.387C0.161,-0.356 0.145,-0.313 0.145,-0.26C0.145,-0.207 0.161,-0.164 0.192,-0.133C0.223,-0.102 0.262,-0.087 0.307,-0.087C0.352,-0.087 0.387,-0.102 0.413,-0.133C0.426,-0.146 0.44,-0.152 0.456,-0.152Z" style="fill:rgb(64,63,65);fill-rule:nonzero;"/>
                    </g>
                    <g transform="matrix(10.4069,0,0,10.4069,544.151,426.584)">
                        <path d="M0.152,-0.633C0.141,-0.623 0.129,-0.618 0.114,-0.618C0.099,-0.618 0.087,-0.623 0.076,-0.633C0.065,-0.644 0.06,-0.656 0.06,-0.671C0.06,-0.686 0.065,-0.698 0.076,-0.708C0.087,-0.719 0.099,-0.724 0.114,-0.724C0.129,-0.724 0.141,-0.719 0.152,-0.708C0.163,-0.698 0.168,-0.686 0.168,-0.671C0.168,-0.656 0.163,-0.644 0.152,-0.633ZM0.167,-0.469L0.167,-0.048C0.167,-0.033 0.162,-0.021 0.152,-0.01C0.141,0.001 0.129,0.006 0.114,0.006C0.099,0.006 0.087,0.001 0.077,-0.01C0.066,-0.021 0.061,-0.033 0.061,-0.048L0.061,-0.469C0.061,-0.484 0.066,-0.496 0.077,-0.507C0.087,-0.518 0.099,-0.523 0.114,-0.523C0.129,-0.523 0.141,-0.518 0.152,-0.507C0.162,-0.496 0.167,-0.484 0.167,-0.469Z" style="fill:rgb(64,63,65);fill-rule:nonzero;"/>
                    </g>
                    <g transform="matrix(10.4069,0,0,10.4069,546.524,426.584)">
                        <path d="M0.284,-0.526C0.321,-0.526 0.354,-0.517 0.384,-0.5C0.413,-0.483 0.435,-0.459 0.448,-0.43L0.448,-0.47C0.448,-0.485 0.453,-0.497 0.464,-0.508C0.474,-0.518 0.486,-0.523 0.501,-0.523C0.516,-0.523 0.528,-0.518 0.539,-0.508C0.55,-0.497 0.555,-0.485 0.555,-0.47L0.555,-0.047C0.555,-0.032 0.55,-0.02 0.539,-0.01C0.528,0.001 0.516,0.006 0.501,0.006C0.486,0.006 0.474,0.001 0.464,-0.01C0.453,-0.02 0.448,-0.032 0.448,-0.047L0.448,-0.101C0.444,-0.075 0.427,-0.051 0.396,-0.028C0.365,-0.005 0.327,0.007 0.284,0.007C0.244,0.007 0.206,-0.002 0.171,-0.021C0.133,-0.04 0.102,-0.071 0.077,-0.114C0.052,-0.156 0.04,-0.205 0.04,-0.26C0.04,-0.303 0.048,-0.341 0.063,-0.376C0.078,-0.411 0.097,-0.439 0.121,-0.46C0.145,-0.481 0.171,-0.498 0.2,-0.509C0.228,-0.52 0.256,-0.526 0.284,-0.526ZM0.301,-0.084C0.34,-0.084 0.375,-0.099 0.406,-0.129C0.437,-0.159 0.453,-0.203 0.453,-0.26C0.453,-0.317 0.437,-0.361 0.406,-0.39C0.375,-0.42 0.34,-0.435 0.301,-0.435C0.26,-0.435 0.224,-0.42 0.193,-0.389C0.162,-0.358 0.146,-0.315 0.146,-0.26C0.146,-0.205 0.162,-0.161 0.193,-0.13C0.224,-0.099 0.26,-0.084 0.301,-0.084Z" style="fill:rgb(64,63,65);fill-rule:nonzero;"/>
                    </g>
                    <g transform="matrix(10.4069,0,0,10.4069,552.924,426.584)">
                        <path d="M0.28,-0.091C0.293,-0.093 0.303,-0.091 0.311,-0.084C0.319,-0.077 0.323,-0.067 0.323,-0.054C0.323,-0.035 0.314,-0.021 0.295,-0.011C0.276,-0 0.251,0.005 0.22,0.005C0.181,0.005 0.152,-0.005 0.132,-0.026C0.111,-0.047 0.101,-0.082 0.101,-0.131L0.101,-0.435L0.063,-0.435C0.05,-0.435 0.04,-0.439 0.032,-0.447C0.024,-0.454 0.02,-0.465 0.02,-0.478C0.02,-0.491 0.024,-0.501 0.032,-0.509C0.04,-0.516 0.05,-0.52 0.063,-0.52L0.101,-0.52L0.101,-0.598C0.101,-0.612 0.106,-0.624 0.117,-0.635C0.127,-0.645 0.139,-0.65 0.153,-0.65C0.168,-0.65 0.18,-0.645 0.191,-0.635C0.201,-0.624 0.206,-0.612 0.206,-0.598L0.206,-0.52L0.279,-0.52C0.297,-0.522 0.31,-0.516 0.318,-0.501C0.325,-0.486 0.325,-0.471 0.318,-0.456C0.31,-0.44 0.297,-0.434 0.279,-0.435L0.206,-0.435L0.206,-0.13C0.206,-0.101 0.218,-0.086 0.241,-0.086C0.244,-0.086 0.252,-0.087 0.263,-0.089C0.274,-0.09 0.279,-0.091 0.28,-0.091Z" style="fill:rgb(64,63,65);fill-rule:nonzero;"/>
                    </g>
                    <g transform="matrix(10.4069,0,0,10.4069,556.598,426.584)">
                        <path d="M0.152,-0.633C0.141,-0.623 0.129,-0.618 0.114,-0.618C0.099,-0.618 0.087,-0.623 0.076,-0.633C0.065,-0.644 0.06,-0.656 0.06,-0.671C0.06,-0.686 0.065,-0.698 0.076,-0.708C0.087,-0.719 0.099,-0.724 0.114,-0.724C0.129,-0.724 0.141,-0.719 0.152,-0.708C0.163,-0.698 0.168,-0.686 0.168,-0.671C0.168,-0.656 0.163,-0.644 0.152,-0.633ZM0.167,-0.469L0.167,-0.048C0.167,-0.033 0.162,-0.021 0.152,-0.01C0.141,0.001 0.129,0.006 0.114,0.006C0.099,0.006 0.087,0.001 0.077,-0.01C0.066,-0.021 0.061,-0.033 0.061,-0.048L0.061,-0.469C0.061,-0.484 0.066,-0.496 0.077,-0.507C0.087,-0.518 0.099,-0.523 0.114,-0.523C0.129,-0.523 0.141,-0.518 0.152,-0.507C0.162,-0.496 0.167,-0.484 0.167,-0.469Z" style="fill:rgb(64,63,65);fill-rule:nonzero;"/>
                    </g>
                    <g transform="matrix(10.4069,0,0,10.4069,558.971,426.584)">
                        <path d="M0.303,-0.526C0.333,-0.526 0.363,-0.52 0.393,-0.509C0.423,-0.498 0.451,-0.481 0.478,-0.46C0.504,-0.439 0.525,-0.411 0.542,-0.376C0.559,-0.341 0.567,-0.302 0.567,-0.259C0.567,-0.216 0.559,-0.178 0.542,-0.143C0.525,-0.108 0.504,-0.08 0.478,-0.059C0.451,-0.038 0.423,-0.021 0.393,-0.01C0.363,0.001 0.333,0.007 0.303,0.007C0.261,0.007 0.221,-0.002 0.183,-0.021C0.144,-0.04 0.111,-0.07 0.082,-0.112C0.054,-0.154 0.04,-0.203 0.04,-0.259C0.04,-0.315 0.054,-0.364 0.082,-0.406C0.109,-0.446 0.142,-0.476 0.181,-0.496C0.22,-0.516 0.26,-0.526 0.303,-0.526ZM0.192,-0.387C0.161,-0.356 0.145,-0.313 0.145,-0.259C0.145,-0.205 0.161,-0.163 0.193,-0.132C0.226,-0.101 0.262,-0.085 0.303,-0.085C0.344,-0.085 0.381,-0.101 0.414,-0.132C0.446,-0.163 0.462,-0.205 0.462,-0.259C0.462,-0.313 0.446,-0.356 0.414,-0.387C0.381,-0.418 0.344,-0.434 0.303,-0.434C0.262,-0.434 0.225,-0.418 0.192,-0.387Z" style="fill:rgb(64,63,65);fill-rule:nonzero;"/>
                    </g>
                    <g transform="matrix(10.4069,0,0,10.4069,565.08,426.584)">
                        <path d="M0.345,-0.525C0.399,-0.525 0.445,-0.506 0.482,-0.469C0.519,-0.432 0.537,-0.374 0.537,-0.294L0.537,-0.048C0.537,-0.033 0.532,-0.021 0.522,-0.011C0.512,-0 0.5,0.005 0.485,0.005C0.47,0.005 0.458,-0 0.448,-0.011C0.437,-0.021 0.432,-0.033 0.432,-0.048L0.432,-0.294C0.432,-0.34 0.421,-0.375 0.399,-0.399C0.376,-0.422 0.347,-0.434 0.31,-0.434C0.267,-0.434 0.234,-0.42 0.209,-0.391C0.184,-0.362 0.17,-0.334 0.166,-0.305L0.166,-0.048C0.166,-0.033 0.161,-0.021 0.151,-0.011C0.14,-0 0.128,0.005 0.113,0.005C0.098,0.005 0.086,-0 0.076,-0.011C0.065,-0.021 0.06,-0.033 0.06,-0.048L0.06,-0.469C0.06,-0.484 0.065,-0.496 0.076,-0.507C0.086,-0.518 0.098,-0.523 0.113,-0.523C0.128,-0.523 0.14,-0.518 0.151,-0.507C0.161,-0.496 0.166,-0.484 0.166,-0.469L0.166,-0.403C0.169,-0.426 0.187,-0.453 0.22,-0.482C0.253,-0.511 0.294,-0.525 0.345,-0.525Z" style="fill:rgb(64,63,65);fill-rule:nonzero;"/>
                    </g>
                </g>
                <g>
                    <g transform="matrix(0,24.3386,-24.3386,0,468.388,374.659)">
                        <path d="M0.061,0.103C0.212,0.279 0.407,0.081 0.587,0.137C0.666,0.162 0.736,0.224 0.821,0.218C0.919,0.211 0.994,0.109 1,0.012C1.005,-0.086 0.958,-0.176 0.902,-0.254C0.9,-0.256 0.898,-0.259 0.896,-0.262C0.845,-0.211 0.783,-0.17 0.717,-0.141C0.644,-0.11 0.564,-0.091 0.486,-0.097C0.332,-0.11 0.207,-0.218 0.117,-0.34C0.084,-0.306 0.055,-0.268 0.035,-0.226C0.012,-0.179 -0,-0.127 -0,-0.076C-0,-0.01 0.02,0.054 0.061,0.103Z" style="fill:url(#_Linear1);fill-rule:nonzero;"/>
                    </g>
                    <g transform="matrix(0,24.3386,-24.3386,0,483.036,374.974)">
                        <path d="M0.098,0.254C0.1,0.256 0.102,0.259 0.104,0.262C0.155,0.21 0.217,0.17 0.283,0.141C0.356,0.11 0.436,0.091 0.514,0.097C0.668,0.11 0.793,0.218 0.883,0.34C0.916,0.306 0.945,0.268 0.965,0.226C1.017,0.119 1.013,-0.016 0.939,-0.103C0.788,-0.279 0.593,-0.081 0.413,-0.137C0.334,-0.162 0.264,-0.224 0.179,-0.218C0.081,-0.211 0.006,-0.109 0,-0.012C0,-0.007 0,-0.002 0,0.003C0,0.095 0.045,0.18 0.098,0.254Z" style="fill:url(#_Linear2);fill-rule:nonzero;"/>
                    </g>
                    <g transform="matrix(1,0,0,1,480.67,386.498)">
                        <path d="M0,0.976C-0.306,4.73 -2.931,7.787 -5.91,9.971C-7.158,8.736 -8.151,7.212 -8.848,5.6C-9.615,3.824 -10.069,1.891 -9.915,-0C-9.608,-3.754 -6.984,-6.811 -4.004,-8.995C-2.756,-7.76 -1.763,-6.237 -1.067,-4.624C-0.299,-2.848 0.154,-0.915 0,0.976" style="fill:rgb(151,30,81);fill-rule:nonzero;"/>
                    </g>
                </g>
                <g transform="matrix(1,0,0,1,494.235,399.299)">
                    <path d="M0,-24.299C0.188,-24.299 0.349,-24.226 0.483,-24.08C0.616,-23.933 0.684,-23.755 0.684,-23.544L0.684,-0.755C0.684,-0.544 0.616,-0.365 0.483,-0.219C0.349,-0.073 0.188,0 0,0C-0.204,0 -0.377,-0.073 -0.518,-0.219C-0.659,-0.365 -0.731,-0.544 -0.731,-0.755L-0.731,-23.544C-0.731,-23.755 -0.659,-23.933 -0.518,-24.08C-0.377,-24.226 -0.204,-24.299 0,-24.299" style="fill:rgb(35,31,32);fill-rule:nonzero;"/>
                </g>
            </g>
        </g>
    </g>
    <defs>
        <linearGradient id="_Linear1" x1="0" y1="0" x2="1" y2="0" gradientUnits="userSpaceOnUse" gradientTransform="matrix(1,0,0,-1,0,-0.0608137)"><stop offset="0" style="stop-color:rgb(51,151,211);stop-opacity:1"/><stop offset="0.97" style="stop-color:rgb(38,127,194);stop-opacity:1"/><stop offset="1" style="stop-color:rgb(38,127,194);stop-opacity:1"/></linearGradient>
        <linearGradient id="_Linear2" x1="0" y1="0" x2="1" y2="0" gradientUnits="userSpaceOnUse" gradientTransform="matrix(1,0,0,-1,0,0.0607687)"><stop offset="0" style="stop-color:rgb(247,146,49);stop-opacity:1"/><stop offset="0.97" style="stop-color:rgb(239,198,51);stop-opacity:1"/><stop offset="1" style="stop-color:rgb(239,198,51);stop-opacity:1"/></linearGradient>
    </defs>
</svg>
