<?xml version="1.0" encoding="UTF-8" standalone="no"?><!DOCTYPE svg PUBLIC "-//W3C//DTD SVG 1.1//EN" "http://www.w3.org/Graphics/SVG/1.1/DTD/svg11.dtd"><svg width="100%" height="100%" viewBox="0 0 143 32" version="1.1" xmlns="http://www.w3.org/2000/svg" xmlns:xlink="http://www.w3.org/1999/xlink" xml:space="preserve" xmlns:serif="http://www.serif.com/" style="fill-rule:evenodd;clip-rule:evenodd;stroke-linejoin:round;stroke-miterlimit:2;"><path d="M18.683,11.976c-0.793,0 -1.567,0.236 -2.226,0.678c-0.66,0.443 -1.174,1.072 -1.476,1.807c-0.618,1.501 -0.275,3.234 0.869,4.386c1.141,1.147 2.871,1.492 4.366,0.873c0.732,-0.305 1.358,-0.821 1.798,-1.483c1.056,-1.591 0.846,-3.725 -0.5,-5.08c-0.75,-0.753 -1.769,-1.179 -2.831,-1.181Z" style="fill:#4f46e5;fill-rule:nonzero;"/><g transform="matrix(0.758945,0,0,0.758945,15.9142,-11.5002)"><g transform="matrix(32,0,0,32,35.8656,46.206)"><path d="M0.592,-0.554l0,0.554l-0.141,-0l0,-0.07c-0.018,0.024 -0.041,0.043 -0.07,0.057c-0.029,0.013 -0.061,0.02 -0.095,0.02c-0.043,0 -0.082,-0.009 -0.115,-0.027c-0.033,-0.019 -0.059,-0.046 -0.078,-0.082c-0.019,-0.035 -0.029,-0.078 -0.029,-0.127l0,-0.325l0.14,0l0,0.305c0,0.044 0.011,0.078 0.033,0.102c0.022,0.023 0.052,0.035 0.09,0.035c0.039,0 0.069,-0.012 0.091,-0.035c0.022,-0.024 0.033,-0.058 0.033,-0.102l0,-0.305l0.141,0Z" style="fill-rule:nonzero;"/></g><g transform="matrix(32,0,0,32,57.0176,46.206)"><path d="M0.397,-0l-0.188,-0.236l-0,0.236l-0.14,-0l0,-0.74l0.14,0l-0,0.421l0.186,-0.235l0.182,0l-0.244,0.278l0.246,0.276l-0.182,-0Z" style="fill-rule:nonzero;"/></g><g transform="matrix(32,0,0,32,75.7056,46.206)"><path d="M0.209,-0.468c0.018,-0.029 0.042,-0.052 0.071,-0.069c0.028,-0.017 0.062,-0.025 0.099,-0.025l0,0.147l-0.037,0c-0.044,0 -0.077,0.01 -0.1,0.031c-0.022,0.021 -0.033,0.057 -0.033,0.108l-0,0.276l-0.14,-0l0,-0.554l0.14,0l-0,0.086Z" style="fill-rule:nonzero;"/></g><g transform="matrix(32,0,0,32,88.6336,46.206)"><path d="M0.033,-0.279c0,-0.056 0.011,-0.106 0.034,-0.149c0.022,-0.043 0.052,-0.077 0.091,-0.1c0.039,-0.023 0.082,-0.035 0.129,-0.035c0.036,0 0.07,0.008 0.103,0.024c0.033,0.015 0.059,0.036 0.078,0.062l0,-0.263l0.142,0l-0,0.74l-0.142,-0l-0,-0.082c-0.017,0.027 -0.042,0.049 -0.073,0.066c-0.031,0.017 -0.068,0.025 -0.109,0.025c-0.047,0 -0.089,-0.012 -0.128,-0.036c-0.039,-0.024 -0.069,-0.058 -0.092,-0.102c-0.022,-0.043 -0.033,-0.093 -0.033,-0.15Zm0.436,0.002c-0,-0.034 -0.007,-0.063 -0.02,-0.087c-0.013,-0.025 -0.031,-0.043 -0.054,-0.056c-0.023,-0.013 -0.047,-0.02 -0.073,-0.02c-0.026,0 -0.05,0.006 -0.072,0.019c-0.022,0.013 -0.04,0.031 -0.054,0.056c-0.013,0.024 -0.02,0.053 -0.02,0.086c-0,0.033 0.007,0.063 0.02,0.088c0.014,0.025 0.032,0.044 0.054,0.057c0.023,0.013 0.047,0.02 0.072,0.02c0.026,0 0.05,-0.006 0.073,-0.019c0.023,-0.013 0.041,-0.032 0.054,-0.056c0.013,-0.025 0.02,-0.054 0.02,-0.088Z" style="fill-rule:nonzero;"/></g><g transform="matrix(32,0,0,32,110.33,46.206)"><path d="M0.033,-0.277c0,-0.057 0.012,-0.107 0.035,-0.15c0.023,-0.043 0.056,-0.077 0.097,-0.1c0.041,-0.024 0.089,-0.036 0.142,-0.036c0.069,0 0.126,0.017 0.17,0.051c0.045,0.035 0.076,0.083 0.091,0.145l-0.151,0c-0.008,-0.024 -0.022,-0.043 -0.041,-0.056c-0.019,-0.014 -0.042,-0.021 -0.07,-0.021c-0.04,0 -0.072,0.015 -0.095,0.043c-0.023,0.03 -0.035,0.071 -0.035,0.124c-0,0.053 0.012,0.094 0.035,0.123c0.023,0.029 0.055,0.043 0.095,0.043c0.057,0 0.094,-0.025 0.111,-0.076l0.151,0c-0.015,0.06 -0.046,0.108 -0.091,0.143c-0.045,0.035 -0.102,0.053 -0.17,0.053c-0.053,-0 -0.101,-0.012 -0.142,-0.036c-0.041,-0.023 -0.074,-0.057 -0.097,-0.1c-0.023,-0.042 -0.035,-0.093 -0.035,-0.15Z" style="fill-rule:nonzero;"/></g><g transform="matrix(32,0,0,32,129.594,46.206)"><path d="M0.062,-0.534c0.005,-0.061 0.028,-0.108 0.071,-0.143c0.042,-0.035 0.097,-0.053 0.164,-0.053c0.045,0 0.083,0.008 0.115,0.024c0.032,0.016 0.056,0.038 0.072,0.066c0.017,0.027 0.025,0.058 0.025,0.093c0,0.042 -0.012,0.078 -0.037,0.109c-0.025,0.031 -0.06,0.05 -0.105,0.057l-0,0.005c0.047,0.009 0.085,0.03 0.113,0.062c0.028,0.031 0.042,0.073 0.042,0.124c0,0.057 -0.019,0.104 -0.057,0.141c-0.039,0.036 -0.094,0.054 -0.167,0.054c-0.069,0 -0.126,-0.018 -0.171,-0.054c-0.045,-0.037 -0.07,-0.088 -0.077,-0.155l0.068,0c0.006,0.045 0.025,0.081 0.056,0.109c0.031,0.027 0.073,0.041 0.124,0.041c0.051,0 0.089,-0.013 0.116,-0.04c0.027,-0.027 0.041,-0.061 0.041,-0.102c0,-0.101 -0.073,-0.152 -0.219,-0.152l-0.022,0l-0,-0.059l0.023,0c0.136,0 0.204,-0.044 0.204,-0.133c-0,-0.039 -0.013,-0.07 -0.038,-0.093c-0.025,-0.024 -0.061,-0.036 -0.108,-0.036c-0.045,0 -0.083,0.012 -0.113,0.036c-0.029,0.023 -0.047,0.056 -0.052,0.099l-0.068,0Z" style="fill-rule:nonzero;"/></g></g><path d="M10.539,15.99c0,1.815 2.595,5.447 2.595,5.447c1.187,2.491 0.128,5.478 -2.364,6.664c-2.491,1.187 -5.477,0.128 -6.664,-2.363l-3.62,-7.598c-0.648,-1.361 -0.648,-2.942 0.001,-4.303l3.62,-7.591c1.187,-2.491 4.174,-3.549 6.665,-2.361c2.491,1.188 3.549,4.174 2.361,6.665c-0,0 -2.594,3.626 -2.594,5.44Z" style="fill:#4f46e5;"/><path d="M26.823,15.99c-0,1.815 -2.595,5.447 -2.595,5.447c-1.187,2.491 -0.128,5.478 2.363,6.664c2.492,1.187 5.478,0.128 6.665,-2.363l3.62,-7.598c0.648,-1.361 0.648,-2.942 -0.001,-4.303l-3.62,-7.591c-1.188,-2.491 -4.174,-3.549 -6.665,-2.361c-2.491,1.188 -3.549,4.174 -2.361,6.665c-0,0 2.594,3.626 2.594,5.44Z" style="fill:#4f46e5;"/></svg>